<?xml version="1.0" encoding="UTF-8" standalone="no"?>
<svg
   xmlns:dc="http://purl.org/dc/elements/1.1/"
   xmlns:cc="http://creativecommons.org/ns#"
   xmlns:rdf="http://www.w3.org/1999/02/22-rdf-syntax-ns#"
   xmlns:svg="http://www.w3.org/2000/svg"
   xmlns="http://www.w3.org/2000/svg"
   xmlns:sodipodi="http://sodipodi.sourceforge.net/DTD/sodipodi-0.dtd"
   xmlns:inkscape="http://www.inkscape.org/namespaces/inkscape"
   version="1.0"
   width="321.81354pt"
   height="269.7493pt"
   viewBox="0 0 321.81354 269.7493"
   preserveAspectRatio="xMidYMid meet"
   id="svg62"
   sodipodi:docname="Tele-Arrow2.svg"
   inkscape:version="1.0.2 (e86c870879, 2021-01-15, custom)">
  <metadata
     id="metadata68">
    <rdf:RDF>
      <cc:Work
         rdf:about="">
        <dc:format>image/svg+xml</dc:format>
        <dc:type
           rdf:resource="http://purl.org/dc/dcmitype/StillImage" />
        <dc:title></dc:title>
      </cc:Work>
    </rdf:RDF>
  </metadata>
  <defs
     id="defs66" />
  <sodipodi:namedview
     pagecolor="#ffffff"
     bordercolor="#666666"
     borderopacity="1"
     objecttolerance="10"
     gridtolerance="10"
     guidetolerance="10"
     inkscape:pageopacity="0"
     inkscape:pageshadow="2"
     inkscape:window-width="1920"
     inkscape:window-height="1006"
     id="namedview64"
     showgrid="false"
     fit-margin-top="0"
     fit-margin-left="0"
     fit-margin-right="0"
     fit-margin-bottom="0"
     inkscape:zoom="0.47371908"
     inkscape:cx="-665.24878"
     inkscape:cy="224.15966"
     inkscape:window-x="0"
     inkscape:window-y="0"
     inkscape:window-maximized="1"
     inkscape:current-layer="g60" />
  <g
     transform="matrix(0.1,0,0,-0.1,126.14922,271.73512)"
     fill="#000000"
     stroke="none"
     id="g60">
    <g
       id="g922">
      <path
         id="rect70"
         style="fill:#ffffff;fill-opacity:1;fill-rule:evenodd;stroke-width:7.5"
         d="m 1674.8952,2658.3641 c -16.0001,0.125 -32.0713,-0.4981 -46.5088,-1.9043 -14.4376,-1.4063 -27.253,-3.5918 -36.753,-6.5918 -13.9999,-4 -44.9902,-13.0098 -69.9902,-20.0098 -25,-7 -54.0098,-15.9951 -65.0098,-19.9951 -10.9999,-5 -64.9999,-25 -120,-45 -53.5,-19.5 -83.25,-30.5058 -106.875,-39.7558 -23.625,-9.25 -41.122,-16.7383 -70.122,-29.2383 -68,-29 -101.9932,-43.0108 -147.9932,-61.0108 -25.00003,-10 -64.01173,-25.9912 -87.01173,-35.9912 -24,-11 -44.9883,-18.999 -47.9883,-18.999 -3,0 -24.0029,-8.999 -48.0029,-18.999 -23,-10 -78.0069,-33.0059 -122.0069,-51.0059 -88.9999,-36 -119.0019,-47.999 -187.0019,-78.999 -26,-11 -49.9981,-21.0059 -52.9981,-21.0059 -1.9999,0 -29.9921,-12.0009 -61.9921,-26.0009 -32.0001,-14 -67.0029,-28.9991 -78.003,-33.9991 -11,-4 -36.997,-14.9941 -56.997,-23.9941 -21,-9 -53.0049,-22 -70.0049,-30 -18.0001,-7 -58.9961,-25.0049 -90.9961,-40.0049 -31.999999,-14 -60.995099,-26.001 -64.995099,-26.001 -5,0 -30.0078,-10.9941 -58.0079,-23.9941 -33.4999,-16.5 -60.9951,-29.4932 -87.495001,-41.1182 -26.5001,-11.625 -52.004,-21.8858 -81.504,-32.8858 -27,-10.9999 -76.0068,-31.996 -107.0068,-45.9961 -131,-58.9999 -165.998,-74.0058 -217.9981,-96.0058 -34,-14 -78.7509,-33.25 -117.8759,-50.625 -39.125,-17.375 -72.626,-32.875 -84.126,-39.375 -10,-6 -21.9971,-9.9902 -26.9971,-9.9902 -5,0 -44.9931,-16.0098 -87.9931,-35.0098 -43,-20 -86.9981,-39.9893 -97.9981,-43.9892 -11,-5.0001 -37.0078,-16.0011 -58.0078,-26.001 -20.99997,-9 -49.99507,-22.0079 -64.99507,-28.0079 -14.75,-6.25 -29.8115,-13.9287 -44.3115,-22.3974 -14.5,-8.4688 -28.4424,-17.7246 -40.9424,-27.0996 -12.5,-9.3751 -23.5645,-18.8779 -32.3145,-27.8467 -8.75,-8.9688 -15.1777,-17.4033 -18.4277,-24.6533 -4.125,-8.75 -7.0195,-17.1709 -8.6426,-25.2979 -1.623,-8.127 -1.9853,-15.9551 -1.04,-23.5254 0.9453,-7.5703 3.2021,-14.8779 6.7822,-21.9579 3.5801,-7.0802 8.4844,-13.9395 14.7656,-20.5958 6.2813,-6.6562 13.9346,-13.1104 22.9834,-19.4092 9.0488,-6.2988 19.4942,-12.4345 31.377,-18.4423 11.8828,-6.0079 25.207,-11.8975 39.9902,-17.6807 14.7832,-5.7832 31.0293,-11.4697 48.7793,-17.0947 40.99997,-13.0001 82.99897,-26.9961 93.99897,-30.9961 21,-8 66.5039,-22.504 113.3789,-36.5039 46.875,-14 95.126,-27.501 121.626,-33.501 30,-7 64.9883,-15.9912 77.9883,-20.9912 13,-5 34.0068,-9.0088 47.0068,-9.0088 7,0 18.2471,-1.2441 30.7471,-3.3692 12.5,-2.1249 26.2471,-5.1279 38.2471,-8.6279 10.75,-2.75 23.5107,-4.2421 37.5732,-4.5703 14.0625,-0.3281 29.4394,0.5088 45.4395,2.4463 16,1.9375 32.6122,4.9766 49.1748,9.0234 16.5625,4.0469 33.0732,9.1025 48.8232,15.1026 11,4 33.9952,12.999 49.9951,18.999 12.5001,5 79.7442,46.2569 145.8692,88.2569 66.124901,42 131.1308005,84.7392 139.130801,92.7392 3,3 13.002,10 22.002,15 9,6 202.004899,134.0107 430.004899,286.0108 226.9999,151.9999 443.9922,294.9882 481.9921,317.9882 24.75,15 47.0606,25.9492 66.35753,32.8711 9.6484,3.461 18.5478,5.9092 26.6162,7.3682 8.0684,1.459 15.3066,1.9228 21.6504,1.3916 6.3437,-0.5313 11.7851,-2.0606 16.2597,-4.5703 4.4747,-2.5098 7.9835,-5.9971 10.4444,-10.4737 2.4609,-4.4765 3.8867,-9.9306 4.1895,-16.3623 0.3027,-6.4316 -0.5196,-13.8466 -2.5196,-22.2217 -1.25,-4.5 -20.4375,-26.6152 -50.1562,-58.7402 -29.7188,-32.125 -69.96003,-74.2549 -113.33503,-118.7549 -43.375,-44.4999 -89.8808,-91.3828 -132.0996,-133.0078 -42.2188,-41.625 -80.1563,-77.999 -106.4063,-101.499 -43.5,-38.5 -103.2539,-93.7481 -173.3789,-159.8731 -70.125,-66.1249 -150.6201,-143.1172 -235.6201,-225.1171 -28.125,-27.1251 -52.5947,-51.6006 -73.2861,-74.0479 -20.6914,-22.4473 -37.6094,-42.8652 -50.625,-61.9043 -6.5079,-9.5195 -12.0386,-18.6921 -16.5821,-27.5976 -4.5434,-8.9055 -8.1005,-17.55086 -10.6494,-26.00103 -2.5488,-8.45018 -4.0903,-16.70483 -4.6142,-24.85838 -0.524,-8.15355 -0.023,-16.19827 1.5088,-24.2139 1.5312,-8.01563 4.0884,-16.0017 7.705,-24.03803 3.6167,-8.0364 8.2862,-16.12995 14.0186,-24.34575 5.7324,-8.2158 12.5415,-16.55347 20.4199,-25.10745 7.8785,-8.5539 16.8252,-17.31637 26.8799,-26.36715 20.1093,-18.10155 44.6123,-37.3623 73.6084,-58.40332 28.9961,-21.04103 62.4951,-43.87598 100.6201,-69.126 126.5,-84 203.9893,-135.74708 250.2393,-167.62208 23.125,-15.9375 38.4453,-26.90625 48.164,-34.45312 9.7188,-7.54688 13.8398,-11.66595 14.5899,-13.91595 2,-4.00005 7.997,-7.99808 11.997,-7.99808 2.5001,0 21.2549,-11.25975 49.3799,-29.38477 28.125,-18.12503 65.6299,-43.12013 105.6299,-70.62008 40.5,-27.50002 77.9961,-52.49512 105.9961,-70.62015 28,-18.12502 46.4991,-29.38477 48.99903,-29.38477 2.5,0 4.9941,-0.99705 7.1192,-2.62208 2.125,-1.62502 3.8779,-3.87202 4.8779,-6.37207 0.75,-2.49998 7.3808,-8.18063 17.4902,-15.57128 10.1094,-7.39065 23.7061,-16.49805 38.3936,-25.81057 29.375,-18.62498 63.1192,-38.11133 82.1191,-46.6113 16.5,-7.25003 30.1211,-12.9492 42.2461,-17.40233 12.125,-4.45312 22.7519,-7.66312 33.252,-9.9756 10.5,-2.31247 20.8799,-3.72757 32.5049,-4.55565 11.625,-0.82815 24.4902,-1.06935 39.9902,-1.06935 15,0 26.9453,0.19043 36.9141,0.89355 9.9687,0.70313 17.9677,1.92188 25.0927,3.98438 7.125,2.0625 13.3799,4.95997 19.8486,9.0381 6.4688,4.07812 13.1524,9.33397 21.1524,16.08397 11.75,9.50003 22.6816,21.25095 32.9004,35.376 10.2187,14.12498 19.7187,30.61425 28.5937,49.61423 8.8751,18.99997 17.1251,40.5039 24.8438,64.62892 7.7187,24.12495 14.9151,50.87595 21.6651,80.376 12,51.99998 25.996,114.00293 30.996,138.00293 3,11.49997 5.501,24.99997 7.251,37.5 1.75,12.49995 2.7539,23.99407 2.7539,31.49407 0,7.5 0.9892,17.50883 2.7393,27.75885 1.75,10.24995 4.2509,20.73825 7.2509,29.23823 5,17.00002 25.0001,132.0108 45,256.01077 20,123.99994 40.0001,238.99614 45,255.99604 3,8.5001 5.501,19.7461 7.251,30.9961 1.75,11.25 2.7539,22.5108 2.7539,31.0108 0,17 5.0049,50.9893 10.0049,73.9892 7,29 16.9912,83.4971 26.6162,141.3721 9.625,57.875 18.875,119.1309 24.375,161.6309 4,39 11.0039,80.9951 14.0039,94.9951 4,13 11.0069,58.0048 17.0069,100.0049 19,143 25.9873,195.0049 36.9873,265.0049 12.4999,78.5 20.749,137.5 26.499,191.25 5.75,53.75 9.0136,102.2412 11.5137,159.7412 1.9999,57 2.7412,88.0068 0.3662,108.8818 -1.1875,10.4375 -3.1534,18.3487 -6.1377,25.7081 -2.9844,7.3593 -6.9814,14.1621 -12.2314,22.4121 -6.5001,9.5 -15.753,19.5009 -25.503,27.8759 -9.75,8.375 -20.0058,15.1202 -28.5059,18.1202 -9,3 -21.4375,5.3203 -35.625,6.914 -14.1874,1.5938 -30.1132,2.4678 -46.1132,2.5928 z" />
      <path
         id="path78"
         style="fill:#000000;fill-opacity:1;fill-rule:evenodd;stroke-width:7.5"
         d="m 1721.6383,2716.87 c -30,1 -55.9941,0.4931 -80.2441,-2.0069 -24.25,-2.5 -46.7558,-7.0039 -69.7559,-14.0039 -27.9999,-8 -63.5029,-19.25 -102.6123,-32.3437 -39.1094,-13.0938 -81.8252,-28.0284 -124.2627,-43.4034 -42.4374,-15.375 -84.5937,-31.1816 -122.5781,-46.0254 -37.9843,-14.8437 -71.794,-28.7246 -97.5439,-40.2246 -24,-10 -45.999,-18.999 -48.999,-18.999 -4.0001,0 -33.9981,-12.001 -67.9981,-26.001 -33.00003,-14 -70.00583,-29.999 -81.00593,-33.999 -11,-4 -36.997,-14.9941 -56.997,-23.9941 -74.0001,-31 -103.9981,-44.0108 -217.9981,-91.0108 -63,-26 -133.0097,-54.9951 -155.0098,-64.9951 -22,-9 -79.9902,-34.0049 -129.9902,-55.0049 -49,-20 -108.0049,-44.9902 -130.0049,-54.9902 -21.9999,-10 -84.9951,-37 -139.995099,-60 -55,-23 -118.0097,-50 -140.0098,-60 -22,-10 -82.999901,-36.0078 -135.000001,-58.0079 -52,-21 -116.9902,-48.9922 -144.9902,-61.9921 -65,-29.0001 -81.0098,-36 -275.0098,-120 -206,-89.0001 -212.9902,-92.0069 -279.9902,-122.0069 -30,-14 -90.0117,-39.997 -132.01167,-56.9971 -24,-9.9999 -47.75,-21.1933 -70.3125,-32.9589 -22.5625,-11.7657 -43.9287,-24.1035 -63.1787,-36.4161 -19.25,-12.3124 -36.3721,-24.5996 -50.4346,-36.2402 -14.0625,-11.6406 -25.0654,-22.6377 -32.0654,-32.3877 -6.875,-9.625 -12.7168,-19.8564 -17.5488,-30.5127 -4.8321,-10.6562 -8.6563,-21.7343 -11.4844,-33.0469 -2.8281,-11.3124 -4.6592,-22.8593 -5.5225,-34.4531 -0.8633,-11.5937 -0.7549,-23.2314 0.3076,-34.7314 1.0625,-11.5 3.0713,-22.8653 6.0205,-33.8965 2.9493,-11.0312 6.834,-21.7314 11.6309,-31.919 4.7969,-10.1874 10.5039,-19.8593 17.1094,-28.8281 6.6054,-8.9687 14.1103,-17.2343 22.4853,-24.6094 12,-10.5 22.4424,-19.0068 33.6768,-26.6162 11.2344,-7.6093 23.2646,-14.3173 38.4521,-21.2548 15.1875,-6.9375 33.5332,-14.1036 57.3926,-22.5879 23.8594,-8.4844 53.2334,-18.292 90.48337,-30.542 72,-23 139,-45.9952 150,-49.9951 15,-6.5001 80.002,-23.2471 151.377,-40.1221 71.375,-16.875 149.124,-33.8838 189.624,-40.8838 15.25,-2.5 28.1201,-4.3105 39.917,-5.4199 11.7968,-1.1094 22.5195,-1.5137 33.457,-1.2012 21.875,0.625 44.6182,4.1201 78.6182,10.6201 16.875,3.5 31.7792,6.6377 46.0253,10.1807 14.2461,3.543 27.836,7.4883 42.0704,12.5976 14.2344,5.1094 29.1123,11.3858 45.9521,19.585 16.8398,8.1992 35.6377,18.3301 57.7002,31.1426 44.125,25.625 101.317401,61.9912 182.036201,115.2099 80.718699,53.2188 184.967799,123.2842 323.217699,216.2842 110.0001,74 225,149.999 255,168.999 24,14.5001 36.7539,21.9981 40.254,22.9981 3.4999,1 -2.2491,-4.4961 -15.2491,-15.9961 -32.5,-29.5 -111.5108,-103.0049 -194.1357,-180.6299 -82.625,-77.625 -168.8741,-159.3711 -215.8741,-205.3711 -27.4999,-26.5 -56.4912,-57.2461 -80.9911,-85.3711 -24.5001,-28.125 -44.5089,-53.624 -54.008899,-69.624 -7.9999,-13 -14.1884,-23.502 -18.9697,-33.0176 -4.7812,-9.5156 -8.1572,-18.0517 -10.5322,-27.11421 -2.375,-9.06255 -3.7451,-18.65235 -4.5263,-30.29302 -0.7813,-11.6406 -0.9669,-25.33298 -0.9669,-42.58298 0.1251,-17.12498 0.6289,-32.48048 2.3438,-46.875 1.7148,-14.39453 4.6396,-27.8232 9.624,-41.08883 4.9844,-13.2657 12.0244,-26.36917 21.958,-40.10745 9.933599,-13.73827 22.768499,-28.10355 39.331099,-43.91602 16.5625,-15.81248 36.8574,-33.07028 61.7285,-52.55858 24.8711,-19.4883 54.3056,-41.21092 89.165,-65.9766 69.7188,-49.5312 161.1045,-111.21967 280.8545,-191.46967 190,-127.00005 372,-250.00298 405,-273.00293 39.50003,-27.75007 74.49913,-50.68072 106.65533,-69.477596 16.0781,-9.3984 31.4404,-17.76855 46.3037,-25.18065 14.8633,-7.4121 29.2236,-13.87402 43.2861,-19.46775 14.0625,-5.5938 27.8232,-10.32415 41.499,-14.26765 13.6758,-3.9433 27.2686,-7.1044 40.9717,-9.5654 13.7032,-2.4609 27.5156,-4.2148 41.6602,-5.3613 14.1445,-1.1464 28.6231,-1.6846 43.6231,-1.6846 21.4999,0 40.8046,1.1875 58.4765,3.75 17.6719,2.5626 33.7099,6.5118 48.6475,12.0117 14.9375,5.50008 28.7734,12.5596 42.0702,21.3721 13.2969,8.8125 26.0538,19.37505 38.8038,31.875 9,8.50005 19.1826,21.242176 29.6045,36.445346 10.4218,15.2031 21.0879,32.86913 31.0254,51.18165 9.9375,18.31245 19.1425,37.27928 26.6894,55.10738 7.5469,17.82817 13.4346,34.51665 16.6846,48.26662 7,27.99998 20.9883,94.9941 34.8633,164.61915 13.875,69.62498 27.6308,141.88088 34.1308,180.38085 6,39 20.0001,114.9951 30,169.99515 10,54.99998 29.001,161.00483 41.001,235.00489 12,74 25,157.995 30,184.9951 4,28 13.0029,76.9951 18.003,109.9951 6,33 14.9911,87 20.9911,120 6,33 15.0098,92.0049 20.0098,130.0049 5,39 16.9903,114.9951 24.9902,169.9951 9,55 20.0049,132.0097 25.0049,170.0098 5.0001,39 13.9951,99 19.9951,135 14,86.5 22.7579,147.999 28.0079,204.624 2.625,28.3125 4.3701,55.3985 5.4639,83.7891 1.0937,28.3906 1.538,58.082 1.538,91.582 0,36.25 0,63.4424 -0.4688,84.5361 -0.4687,21.0938 -1.4062,36.084 -3.2812,47.959 -1.875,11.875 -4.6875,20.6299 -8.9063,29.2237 -4.2187,8.5937 -9.8437,17.0361 -17.3437,28.2861 -11.5,16.75 -23.5615,30.9395 -36.8115,42.8613 -6.625,5.961 -13.5479,11.3506 -20.8448,16.2158 -7.2968,4.8653 -14.9755,9.1934 -23.1005,13.0372 -16.25,7.6875 -34.3145,13.414 -54.8145,17.4609 -20.5,4.0469 -43.4335,6.4268 -69.4336,7.4268 z m -46.7431,-58.5059 c 16,-0.125 31.9258,-0.999 46.1132,-2.5928 14.1875,-1.5937 26.625,-3.914 35.625,-6.914 8.5001,-3 18.7559,-9.7452 28.5059,-18.1202 9.75,-8.375 19.0029,-18.3759 25.503,-27.8759 5.25,-8.25 9.247,-15.0528 12.2314,-22.4121 2.9843,-7.3594 4.9502,-15.2706 6.1377,-25.7081 2.375,-20.875 1.6337,-51.8818 -0.3662,-108.8818 -2.5001,-57.5 -5.7637,-105.9912 -11.5137,-159.7412 -5.75,-53.75 -13.9991,-112.75 -26.499,-191.25 -11,-70 -17.9873,-122.0049 -36.9873,-265.0049 -6,-42.0001 -13.0069,-87.0049 -17.0069,-100.0049 -3,-14 -10.0039,-55.9951 -14.0039,-94.9951 -5.5,-42.5 -14.75,-103.7559 -24.375,-161.6309 -9.625,-57.875 -19.6162,-112.3721 -26.6162,-141.3721 -5,-22.9999 -10.0049,-56.9892 -10.0049,-73.9892 0,-8.5 -1.0039,-19.7608 -2.7539,-31.0108 -1.75,-11.25 -4.251,-22.496 -7.251,-30.9961 -4.9999,-16.9999 -25,-131.9961 -45,-255.99604 -19.9999,-123.99997 -40,-239.01075 -45,-256.01077 -3,-8.49998 -5.5009,-18.98828 -7.2509,-29.23823 -1.7501,-10.25002 -2.7393,-20.25885 -2.7393,-27.75885 0,-7.5 -1.0039,-18.99412 -2.7539,-31.49407 -1.75,-12.50003 -4.251,-26.00003 -7.251,-37.5 -5,-24 -18.996,-86.00295 -30.996,-138.00293 -6.75,-29.50005 -13.9464,-56.25105 -21.6651,-80.376 -7.7187,-24.12502 -15.9687,-45.62895 -24.8438,-64.62892 -8.875,-18.99998 -18.375,-35.48925 -28.5937,-49.61423 -10.2188,-14.12505 -21.1504,-25.87597 -32.9004,-35.376 -8,-6.75 -14.6836,-12.00585 -21.1524,-16.08397 -6.4687,-4.07813 -12.7236,-6.9756 -19.8486,-9.0381 -7.125,-2.0625 -15.124,-3.28125 -25.0927,-3.98438 -9.9688,-0.70312 -21.9141,-0.89355 -36.9141,-0.89355 -15.5,0 -28.3652,0.2412 -39.9902,1.06935 -11.625,0.82808 -22.0049,2.24318 -32.5049,4.55565 -10.5001,2.31248 -21.127,5.52248 -33.252,9.9756 -12.125,4.45313 -25.7461,10.1523 -42.2461,17.40233 -18.9999,8.49997 -52.7441,27.98632 -82.1191,46.6113 -14.6875,9.31252 -28.2842,18.41992 -38.3936,25.81057 -10.1094,7.39065 -16.7402,13.0713 -17.4902,15.57128 -1,2.50005 -2.7529,4.74705 -4.8779,6.37207 -2.1251,1.62503 -4.6192,2.62208 -7.1192,2.62208 -2.49993,0 -20.99903,11.25975 -48.99903,29.38477 -28,18.12503 -65.4961,43.12013 -105.9961,70.62015 -40,27.49995 -77.5049,52.49505 -105.6299,70.62008 -28.125,18.12502 -46.8798,29.38477 -49.3799,29.38477 -4,0 -9.997,3.99803 -11.997,7.99808 -0.7501,2.25 -4.8711,6.36907 -14.5899,13.91595 -9.7187,7.54687 -25.039,18.51562 -48.164,34.45312 -46.25,31.875 -123.7393,83.62208 -250.2393,167.62208 -38.125,25.25002 -71.624,48.08497 -100.6201,69.126 -28.9961,21.04102 -53.4991,40.30177 -73.6084,58.40332 -10.0547,9.05078 -19.0014,17.81325 -26.8799,26.36715 -7.8784,8.55398 -14.6875,16.89165 -20.4199,25.10745 -5.7324,8.2158 -10.4019,16.30935 -14.0186,24.34575 -3.6166,8.03633 -6.1738,16.0224 -7.705,24.03803 -1.5313,8.01563 -2.0328,16.06035 -1.5088,24.2139 0.5239,8.15355 2.0654,16.4082 4.6142,24.85838 2.5489,8.45017 6.106,17.09553 10.6494,26.00103 4.5435,8.9055 10.0742,18.0781 16.5821,27.5976 13.0156,19.0391 29.9336,39.457 50.625,61.9043 20.6914,22.4473 45.1611,46.9228 73.2861,74.0479 85,81.9999 165.4951,158.9922 235.6201,225.1171 70.125,66.125 129.8789,121.3731 173.3789,159.8731 26.25,23.5 64.1875,59.874 106.4063,101.499 42.2188,41.625 88.7246,88.5079 132.0996,133.0078 43.375,44.5 83.61623,86.6299 113.33503,118.7549 29.7187,32.125 48.9062,54.2402 50.1562,58.7402 2,8.3751 2.8223,15.7901 2.5196,22.2217 -0.3028,6.4317 -1.7286,11.8858 -4.1895,16.3623 -2.4609,4.4766 -5.9697,7.9639 -10.4444,10.4737 -4.4746,2.5097 -9.916,4.039 -16.2597,4.5703 -6.3438,0.5312 -13.582,0.067 -21.6504,-1.3916 -8.0684,-1.459 -16.9678,-3.9072 -26.6162,-7.3682 -19.29693,-6.9219 -41.60753,-17.8711 -66.35753,-32.8711 -37.9999,-23 -254.9922,-165.9883 -481.9921,-317.9882 -228,-152.0001 -421.004899,-280.0108 -430.004899,-286.0108 -9,-5 -19.002,-12 -22.002,-15 -8.0000005,-8 -73.0059,-50.7392 -139.130801,-92.7392 -66.125,-42 -133.3691,-83.2569 -145.8692,-88.2569 -15.9999,-6 -38.9951,-14.999 -49.9951,-18.999 -15.75,-6.0001 -32.2607,-11.0557 -48.8232,-15.1026 -16.5626,-4.0468 -33.1748,-7.0859 -49.1748,-9.0234 -16.0001,-1.9375 -31.377,-2.7744 -45.4395,-2.4463 -14.0625,0.3282 -26.8232,1.8203 -37.5732,4.5703 -12,3.5 -25.7471,6.503 -38.2471,8.6279 -12.5,2.1251 -23.7471,3.3692 -30.7471,3.3692 -13,0 -34.0068,4.0088 -47.0068,9.0088 -13,5 -47.9883,13.9912 -77.9883,20.9912 -26.5,6 -74.751,19.501 -121.626,33.501 -46.875,13.9999 -92.3789,28.5039 -113.3789,36.5039 -11,4 -52.999,17.996 -93.99897,30.9961 -17.75,5.625 -33.9961,11.3115 -48.7793,17.0947 -14.7832,5.7832 -28.1074,11.6728 -39.9902,17.6807 -11.8828,6.0078 -22.3282,12.1435 -31.377,18.4423 -9.0488,6.2988 -16.7021,12.753 -22.9834,19.4092 -6.2812,6.6563 -11.1855,13.5156 -14.7656,20.5958 -3.5801,7.08 -5.8369,14.3876 -6.7822,21.9579 -0.9453,7.5703 -0.583,15.3984 1.04,23.5254 1.6231,8.127 4.5176,16.5479 8.6426,25.2979 3.25,7.25 9.6777,15.6845 18.4277,24.6533 8.75,8.9688 19.8145,18.4716 32.3145,27.8467 12.5,9.375 26.4424,18.6308 40.9424,27.0996 14.5,8.4687 29.5615,16.1474 44.3115,22.3974 15,6 43.9951,19.0079 64.99507,28.0079 21,9.9999 47.0078,21.0009 58.0078,26.001 11,3.9999 54.9981,23.9892 97.9981,43.9892 43,19 82.9931,35.0098 87.9931,35.0098 5,0 16.9971,3.9902 26.9971,9.9902 11.5,6.5 45.001,22 84.126,39.375 39.125,17.375 83.8759,36.625 117.8759,50.625 52.0001,22 86.9981,37.0059 217.9981,96.0058 31,14.0001 80.0068,34.9962 107.0068,45.9961 29.5,11 55.0039,21.2608 81.504,32.8858 26.499901,11.625 53.995101,24.6182 87.495001,41.1182 28.0001,13 53.0079,23.9941 58.0079,23.9941 4,0 32.9951,12.001 64.995099,26.001 32,15 72.996,33.0049 90.9961,40.0049 17,8 49.0049,21 70.0049,30 20,9 45.997,19.9941 56.997,23.9941 11.0001,5 46.0029,19.9991 78.003,33.9991 32,14 59.9922,26.0009 61.9921,26.0009 3,0 26.9981,10.0059 52.9981,21.0059 68,31 98.002,42.999 187.0019,78.999 44,18 99.0069,41.0059 122.0069,51.0059 24,10 45.0029,18.999 48.0029,18.999 3,0 23.9883,7.999 47.9883,18.999 23,10 62.0117,25.9912 87.01173,35.9912 46,18 79.9932,32.0108 147.9932,61.0108 29,12.5 46.497,19.9883 70.122,29.2383 23.625,9.25 53.375,20.2558 106.875,39.7558 55.0001,20 109.0001,40 120,45 11,4 40.0098,12.9951 65.0098,19.9951 25,7 55.9903,16.0098 69.9902,20.0098 9.5,3 22.3154,5.1855 36.753,6.5918 14.4375,1.4062 30.5087,2.0293 46.5088,1.9043 z" />
    </g>
  </g>
</svg>
