<?xml version="1.0" standalone="no"?>
<!DOCTYPE svg PUBLIC "-//W3C//DTD SVG 20010904//EN"
 "http://www.w3.org/TR/2001/REC-SVG-20010904/DTD/svg10.dtd">
<svg version="1.0" xmlns="http://www.w3.org/2000/svg"
 width="615.000000pt" height="615.000000pt" viewBox="0 0 615.000000 615.000000"
 preserveAspectRatio="xMidYMid meet">
<metadata>
Created by potrace 1.14, written by Peter Selinger 2001-2017
</metadata>
<g transform="translate(0.000000,615.000000) scale(0.100000,-0.100000)"
fill="#000000" stroke="none">
<path d="M0 3075 l0 -3075 3075 0 3075 0 0 3075 0 3075 -3075 0 -3075 0 0
-3075z m5192 58 c10 -9 18 -30 18 -47 0 -71 -102 -776 -121 -832 -14 -46 -42
-67 -76 -60 -33 8 -337 238 -366 277 -17 24 -18 29 -4 55 8 16 62 79 119 139
172 183 198 214 198 230 0 8 -7 15 -15 15 -8 0 -108 -70 -221 -156 -113 -86
-222 -162 -242 -171 -41 -17 -73 -13 -182 24 -88 29 -120 54 -104 81 24 40
898 461 958 462 11 0 28 -7 38 -17z"/>
</g>
</svg>
